<svg xmlns="http://www.w3.org/2000/svg" viewBox="0 0 640 400">
  <defs><linearGradient id="g" x1="0" y1="0" x2="1" y2="1"><stop stop-color="#166534"/><stop offset="1" stop-color="#86efac"/></linearGradient></defs>
  <rect width="640" height="400" rx="42" fill="url(#g)"/><path d="M161 216h318c-13 82-69 126-159 126s-146-44-159-126z" fill="#dcfce7"/><path d="M147 204h346" stroke="#f0fdf4" stroke-width="23" stroke-linecap="round"/><path d="M209 201c8-46 38-74 71-74 17 0 29 7 40 19 11-12 23-19 40-19 33 0 63 28 71 74" fill="#fefce8"/><path d="M240 183c12-23 27-33 45-34m45 0c18 1 33 11 45 34" fill="none" stroke="#65a30d" stroke-width="13" stroke-linecap="round"/>
</svg>
