<svg xmlns="http://www.w3.org/2000/svg" viewBox="0 0 640 400">
  <defs><linearGradient id="g" x1="0" y1="0" x2="1" y2="1"><stop stop-color="#047857"/><stop offset="1" stop-color="#a7f3d0"/></linearGradient></defs>
  <rect width="640" height="400" rx="42" fill="url(#g)"/><path d="M181 249c0-87 52-145 139-145 74 0 128 48 139 119-39-23-75-18-106 8-35 29-76 34-118 8-20-12-38-8-54 18z" fill="#ecfdf5"/><path d="M320 281c0-89 30-151 95-188" fill="none" stroke="#34d399" stroke-width="20" stroke-linecap="round"/><path d="M320 217c-45-2-78-23-99-63m99 10c37-6 66-28 86-64" fill="none" stroke="#6ee7b7" stroke-width="17" stroke-linecap="round"/>
</svg>
